<svg xmlns="http://www.w3.org/2000/svg" width="63.21" height="63.21" viewBox="0 0 63.21 63.21"><g transform="translate(-4 -4)"><path d="M35.605,4A31.605,31.605,0,1,0,67.21,35.605,31.605,31.605,0,0,0,35.605,4Z" fill="#29b6f6"/><path d="M47.847,15.58,41.928,45.8a1.844,1.844,0,0,1-1.967,1.381,2.114,2.114,0,0,1-1.38-.433L25.758,36.113,19.485,32.95l-8.051-2.141S10,30.4,10,29.21c0-.988,1.474-1.459,1.474-1.459L45.159,14.37A6.436,6.436,0,0,1,46.939,14c.461,0,.988.2.988.79A4.62,4.62,0,0,1,47.847,15.58Z" transform="translate(3.482 5.803)" fill="#fff"/><path d="M25.317,31.964,19.9,37.3a1.033,1.033,0,0,1-.55.19.781.781,0,0,1-.346-.068l1.523-9.426Z" transform="translate(8.708 13.921)" fill="#b0bec5"/><path d="M37.961,18.31a.79.79,0,0,0-1.108-.147L16,30.642s3.328,9.311,3.835,10.923.917,1.651.917,1.651l1.523-9.426L37.812,19.416A.788.788,0,0,0,37.961,18.31Z" transform="translate(6.963 8.124)" fill="#cfd8dc"/></g></svg>