<svg xmlns="http://www.w3.org/2000/svg" width="63.935" height="63.935" viewBox="0 0 63.935 63.935"><path d="M31.967,63.935A31.967,31.967,0,1,0,0,31.967,31.967,31.967,0,0,0,31.967,63.935Z" fill="#25d366"/><path d="M29.569,46.831h-.008a18.992,18.992,0,0,1-9.084-2.314L10.4,47.161l2.7-9.85a19.009,19.009,0,1,1,16.472,9.521Zm-8.625-5.755.577.342a15.774,15.774,0,0,0,8.042,2.2h.006a15.8,15.8,0,1,0-13.384-7.4l.376.6-1.6,5.83Zm17.551-9.161a1.536,1.536,0,0,1,.651.428,3.973,3.973,0,0,1-.277,2.259c-.4,1.11-2.294,2.122-3.206,2.258a6.507,6.507,0,0,1-2.992-.188,27.288,27.288,0,0,1-2.708-1c-4.453-1.923-7.462-6.238-8.031-7.054-.04-.057-.068-.1-.083-.118l0-.005a9.228,9.228,0,0,1-1.936-4.908,5.26,5.26,0,0,1,1.569-3.862l.093-.1a1.745,1.745,0,0,1,1.267-.594c.317,0,.634,0,.91.017.034,0,.07,0,.106,0,.277,0,.622,0,.962.814.131.315.323.781.525,1.273.409.995.86,2.094.94,2.253a.874.874,0,0,1,.04.832l-.067.135a2.7,2.7,0,0,1-.408.657c-.079.093-.161.192-.243.292-.163.2-.327.4-.469.54-.238.237-.485.494-.208.969a14.318,14.318,0,0,0,2.642,3.29,12.267,12.267,0,0,0,3.506,2.216c.131.057.236.1.314.141.475.238.752.2,1.029-.119s1.187-1.387,1.5-1.862.633-.4,1.069-.238,2.771,1.308,3.246,1.545Z" transform="translate(3.452 2.921)" fill="#fdfdfd" fill-rule="evenodd"/></svg>