<svg xmlns="http://www.w3.org/2000/svg" xmlns:xlink="http://www.w3.org/1999/xlink" width="116" height="114.564" viewBox="0 0 116 114.564"><defs><linearGradient id="a" x1="0.003" y1="0.351" x2="1" y2="0.644" gradientUnits="objectBoundingBox"><stop offset="0.23" stop-color="#c9c9c9"/><stop offset="0.33" stop-color="#c6c5c5" stop-opacity="0.98"/><stop offset="0.45" stop-color="#bfb9bb" stop-opacity="0.941"/><stop offset="0.58" stop-color="#b2a5aa" stop-opacity="0.859"/><stop offset="0.73" stop-color="#a18a93" stop-opacity="0.749"/><stop offset="0.87" stop-color="#8b6775" stop-opacity="0.62"/><stop offset="1" stop-color="#744456" stop-opacity="0.478"/></linearGradient><linearGradient id="b" x1="0.131" y1="0.629" x2="1.112" y2="0.196" gradientUnits="objectBoundingBox"><stop offset="0.12" stop-color="#936d7e"/><stop offset="1" stop-color="#59394d"/></linearGradient><linearGradient id="c" x1="0.019" y1="0.356" x2="1.013" y2="0.617" gradientUnits="objectBoundingBox"><stop offset="0.23" stop-color="#c1b1c3" stop-opacity="0.678"/><stop offset="0.43" stop-color="#b6a6b9" stop-opacity="0.71"/><stop offset="0.68" stop-color="#96859e" stop-opacity="0.812"/><stop offset="0.95" stop-color="#614f71" stop-opacity="0.969"/><stop offset="1" stop-color="#574568"/></linearGradient><linearGradient id="d" x1="0.117" y1="0.193" x2="0.618" y2="0.854" gradientUnits="objectBoundingBox"><stop offset="0.23" stop-color="#c9c9c9"/><stop offset="0.34" stop-color="#c7c5c6" stop-opacity="0.98"/><stop offset="0.46" stop-color="#bfbabc" stop-opacity="0.941"/><stop offset="0.58" stop-color="#b3a7ac" stop-opacity="0.871"/><stop offset="0.72" stop-color="#a38d95" stop-opacity="0.769"/><stop offset="0.86" stop-color="#8d6c78" stop-opacity="0.631"/><stop offset="1" stop-color="#744456" stop-opacity="0.478"/></linearGradient><linearGradient id="e" x1="0.118" y1="0.15" x2="0.765" y2="0.912" gradientUnits="objectBoundingBox"><stop offset="0.21" stop-color="#c1b1c3" stop-opacity="0.678"/><stop offset="0.41" stop-color="#b6a6ba" stop-opacity="0.71"/><stop offset="0.66" stop-color="#9887a0" stop-opacity="0.8"/><stop offset="0.93" stop-color="#665475" stop-opacity="0.961"/><stop offset="1" stop-color="#574568"/></linearGradient><linearGradient id="f" x1="0.399" y1="0.358" x2="0.752" y2="0.908" gradientUnits="objectBoundingBox"><stop offset="0.12" stop-color="#936d7e"/><stop offset="0.33" stop-color="#8d6779"/><stop offset="0.62" stop-color="#7b576a"/><stop offset="0.95" stop-color="#5e3d51"/><stop offset="1" stop-color="#59394d"/></linearGradient><linearGradient id="g" x1="0.735" y1="0.403" x2="0.27" y2="0.95" gradientUnits="objectBoundingBox"><stop offset="0.04" stop-color="#c9c9c9"/><stop offset="0.16" stop-color="#c6c5c5" stop-opacity="0.98"/><stop offset="0.31" stop-color="#beb9bb" stop-opacity="0.941"/><stop offset="0.48" stop-color="#b2a4a9" stop-opacity="0.859"/><stop offset="0.66" stop-color="#a08891" stop-opacity="0.749"/><stop offset="0.85" stop-color="#896572" stop-opacity="0.612"/><stop offset="1" stop-color="#744456" stop-opacity="0.478"/></linearGradient><linearGradient id="h" x1="0.337" y1="0.845" x2="0.86" y2="0.051" gradientUnits="objectBoundingBox"><stop offset="0.15" stop-color="#936d7e"/><stop offset="0.51" stop-color="#7d596b"/><stop offset="1" stop-color="#59394d"/></linearGradient><linearGradient id="i" x1="0.399" y1="0.7" x2="0.776" y2="0.028" gradientUnits="objectBoundingBox"><stop offset="0.17" stop-color="#c1b1c3" stop-opacity="0.678"/><stop offset="0.39" stop-color="#ad9cb2" stop-opacity="0.741"/><stop offset="0.76" stop-color="#766583" stop-opacity="0.91"/><stop offset="0.93" stop-color="#574568"/></linearGradient><linearGradient id="j" x1="1" y1="0.5" x2="0" y2="0.5" gradientUnits="objectBoundingBox"><stop offset="0.15" stop-color="#9c6ba0" stop-opacity="0.749"/><stop offset="0.75" stop-color="#6b4d70" stop-opacity="0.922"/><stop offset="1" stop-color="#543f59"/></linearGradient><linearGradient id="k" x1="0.16" y1="0.534" x2="0.85" y2="0.406" xlink:href="#j"/></defs><g transform="translate(0.024 0.032)"><path d="M134.816,23.868a34.224,34.224,0,0,0-18.158-5.9c-7.921-.081-14.363,3.771-20.644,8.16q-1.212.849-2.425,1.693a122.457,122.457,0,0,0-10.71-6.947A26.615,26.615,0,0,0,61.4,19.5a34.161,34.161,0,0,0-8.669,4.211,55.392,55.392,0,0,1,82.086.15Z" transform="translate(-35.819 -5.62)" opacity="0.68" fill="url(#a)"/><path d="M75.847,38.99a120.622,120.622,0,0,1,10.71,6.947c-1.212.808-2.425,1.645-3.67,2.425a55.929,55.929,0,0,1-24.3,7.994,27.552,27.552,0,0,1-12.027-1.192c-3.379-1.265-6.183-4.215-5.525-7.5a56.311,56.311,0,0,1,4.668-5.824,34.03,34.03,0,0,1,8.669-4.211A26.544,26.544,0,0,1,75.847,38.99Z" transform="translate(-28.794 -23.737)" fill="url(#b)"/><path d="M197.345,53.4a13.894,13.894,0,0,1-7.052,2.566,49.587,49.587,0,0,1-32.2-7.1c-1.459-.889-2.878-1.831-4.284-2.8q1.212-.843,2.425-1.693c6.289-4.389,12.731-8.249,20.652-8.16a34.213,34.213,0,0,1,18.158,5.9,56.486,56.486,0,0,1,4.777,6.03A6.52,6.52,0,0,1,197.345,53.4Z" transform="translate(-96.048 -23.87)" opacity="0.64" fill="url(#c)"/><path d="M13.43,110.76a34.363,34.363,0,0,0,4.041,18.655c3.924,6.87,10.508,10.508,17.455,13.713.9.4,1.794.808,2.692,1.249a122.187,122.187,0,0,0-.6,12.751,26.551,26.551,0,0,0,9.647,19.233,33.831,33.831,0,0,0,8.01,5.363A55.4,55.4,0,0,1,13.43,110.76Z" transform="translate(-10.85 -68.287)" opacity="0.68" fill="url(#d)"/><path d="M75.63,206.691a122.347,122.347,0,0,1,.6-12.751c1.322.622,2.639,1.261,3.932,1.952a55.914,55.914,0,0,1,19.165,16.946,27.53,27.53,0,0,1,5.036,10.989c.61,3.556-.529,7.469-3.7,8.556a56.6,56.6,0,0,1-7.38-1.1,34.162,34.162,0,0,1-8.01-5.363A26.552,26.552,0,0,1,75.63,206.691Z" transform="translate(-49.447 -117.85)" opacity="0.64" fill="url(#e)"/><path d="M25.788,91.114c2.372.885,4.2,2.829,5.771,4.8a49.6,49.6,0,0,1,10.1,31.386c-.032,1.705-.129,3.407-.255,5.108-.9-.424-1.794-.837-2.692-1.249-6.951-3.209-13.535-6.81-17.451-13.713a34.077,34.077,0,0,1-4.041-18.655A55.966,55.966,0,0,1,20,91.611,6.544,6.544,0,0,1,25.788,91.114Z" transform="translate(-14.628 -56.315)" fill="url(#f)"/><path d="M230.579,110.4a34.2,34.2,0,0,1-4.062,18.655c-3.924,6.87-10.508,10.508-17.455,13.713-.893.4-1.79.808-2.688,1.249a122.181,122.181,0,0,1,.6,12.751A26.537,26.537,0,0,1,197.326,176a33.807,33.807,0,0,1-8.006,5.363A55.4,55.4,0,0,0,230.579,110.4Z" transform="translate(-117.206 -68.073)" opacity="0.68" fill="url(#g)"/><path d="M190.408,206.331a122.342,122.342,0,0,0-.6-12.751c-1.322.622-2.639,1.261-3.932,1.952a55.877,55.877,0,0,0-19.165,16.946,27.475,27.475,0,0,0-5.036,10.989c-.61,3.552.529,7.469,3.694,8.556a56.765,56.765,0,0,0,7.384-1.091,34.054,34.054,0,0,0,8.006-5.363A26.553,26.553,0,0,0,190.408,206.331Z" transform="translate(-100.641 -117.636)" fill="url(#h)"/><path d="M246.757,90.77a14.038,14.038,0,0,0-5.775,4.8,49.593,49.593,0,0,0-10.1,31.382c.032,1.71.129,3.411.255,5.112.9-.424,1.794-.837,2.688-1.249,6.959-3.209,13.531-6.83,17.455-13.713a34.2,34.2,0,0,0,4.062-18.655,56.582,56.582,0,0,0-2.8-7.165A6.6,6.6,0,0,0,246.757,90.77Z" transform="translate(-141.964 -56.118)" opacity="0.64" fill="url(#i)"/><path d="M146.288,148.636a18.995,18.995,0,0,1-37.388,2.546,7.174,7.174,0,0,0,3.181.719,41.215,41.215,0,0,0,12.181-2.166c3.767-1.132,7.521-2.425,11.381-3.233a13.926,13.926,0,0,1,6.491,0,12.278,12.278,0,0,1,2.566,1.063A14.837,14.837,0,0,1,146.288,148.636Z" transform="translate(-69.288 -89.354)" fill="url(#j)"/><path d="M109.075,118.169a6.062,6.062,0,0,1-.885-1.309,18.995,18.995,0,0,1,37.367-.966l-.093-.028a15.96,15.96,0,0,0-7.642-.667c-5.315,1.083-10.451,2.954-15.762,4.138a31.741,31.741,0,0,1-7.109,1.144A8.012,8.012,0,0,1,109.075,118.169Z" transform="translate(-68.865 -62.334)" fill="url(#k)"/><path d="M133.859,104.086c1.132,2.021-1.746,5-6.167,7.481s-8.713,3.532-9.845,1.516,1.536-5.658,5.957-8.148S132.727,102.065,133.859,104.086Z" transform="translate(-74.464 -63.537)" fill="#4f3950"/><path d="M153.641,173.674c-1.257-1.94,1.427-5.1,5.678-7.861s8.467-4.082,9.728-2.146-1.172,5.751-5.424,8.511S154.9,175.609,153.641,173.674Z" transform="translate(-95.762 -99.265)" fill="#4f3a52"/></g></svg>