<svg xmlns="http://www.w3.org/2000/svg" xmlns:xlink="http://www.w3.org/1999/xlink" width="110.957" height="108.359" viewBox="0 0 110.957 108.359"><defs><linearGradient id="a" y1="0.5" x2="1" y2="0.5" gradientUnits="objectBoundingBox"><stop offset="0.23" stop-color="#c9c9c9"/><stop offset="0.33" stop-color="#c6c5c5" stop-opacity="0.98"/><stop offset="0.45" stop-color="#bfb9bb" stop-opacity="0.941"/><stop offset="0.58" stop-color="#b2a5aa" stop-opacity="0.859"/><stop offset="0.73" stop-color="#a18a93" stop-opacity="0.749"/><stop offset="0.87" stop-color="#8b6775" stop-opacity="0.62"/><stop offset="1" stop-color="#744456" stop-opacity="0.478"/></linearGradient><linearGradient id="b" y1="0.5" x2="1" y2="0.5" gradientUnits="objectBoundingBox"><stop offset="0.12" stop-color="#987b8a"/><stop offset="0.31" stop-color="#927584"/><stop offset="0.58" stop-color="#816374"/><stop offset="0.88" stop-color="#654659"/><stop offset="1" stop-color="#59394d"/></linearGradient></defs><g transform="translate(9.7 -0.02)"><path d="M24.828,60.707a55.744,55.744,0,0,1,2-7.9A45.01,45.01,0,0,1,29.78,46,45.456,45.456,0,0,1,43.5,30.718a53.118,53.118,0,0,1,21.662-9.3,50.892,50.892,0,0,1,16.559-.475,48.684,48.684,0,0,1,15.514,5.032l4.524-8.161L121.8,51.991H82.286l5.17-8.74-.408-.29a40.209,40.209,0,0,0-23.509-7.145,39.479,39.479,0,0,0-12.927,2.668,42.033,42.033,0,0,0-11.641,7.031,45.1,45.1,0,0,0-8.726,10.1c-.475.717-.9,1.424-1.325,2.174q-.855,1.472-1.576,3.019A37.65,37.65,0,0,0,25.8,64.676a30.579,30.579,0,0,0-1.078,4.7L24.5,70.734l-.408,2.44c-.066-.949-.128-2.217-.119-3.746a50.8,50.8,0,0,1,.859-8.721Z" transform="translate(-29.064 -17.79)" fill="url(#a)"/><path d="M138.885,140.941a55.9,55.9,0,0,1-1.98,7.9,45.013,45.013,0,0,1-2.948,6.808,45.554,45.554,0,0,1-13.739,15.272,53.171,53.171,0,0,1-21.662,9.3A50.892,50.892,0,0,1,82,180.7a48.685,48.685,0,0,1-15.514-5.009l-4.524,8.161L41.92,149.671H81.433l-5.17,8.726.408.294a38.483,38.483,0,0,0,36.441,4.458,42.252,42.252,0,0,0,11.636-7.031,45.1,45.1,0,0,0,8.726-10.1c.475-.717.9-1.424,1.325-2.174.57-.983,1.1-1.994,1.576-3.024a37.227,37.227,0,0,0,1.543-3.864,30.384,30.384,0,0,0,1.078-4.69l.228-1.367c.133-.807.271-1.619.408-2.435.066.949.128,2.217.119,3.741A50.8,50.8,0,0,1,138.885,140.941Z" transform="translate(-38.493 -75.91)" fill="url(#b)"/><path d="M14.27,127.88" transform="translate(-23.97 -75.605)" fill="none" stroke="#4f3950" stroke-miterlimit="10" stroke-width="1"/><path d="M84.17,246.06" transform="translate(-60.686 -137.681)" fill="none" stroke="#4f3950" stroke-miterlimit="10" stroke-width="1"/></g></svg>