<svg xmlns="http://www.w3.org/2000/svg" xmlns:xlink="http://www.w3.org/1999/xlink" width="116" height="116" viewBox="0 0 116 116"><defs><clipPath id="a"><circle cx="58" cy="58" r="58" transform="translate(1291 898)" fill="#fff" stroke="#707070" stroke-width="1"/></clipPath><linearGradient id="b" x1="0.5" y1="0.201" x2="0.5" y2="1.427" gradientUnits="objectBoundingBox"><stop offset="0" stop-color="#c9c9c9"/><stop offset="0.13" stop-color="#c7c5c6" stop-opacity="0.988"/><stop offset="0.27" stop-color="#c0bbbd" stop-opacity="0.949"/><stop offset="0.41" stop-color="#b5aaae" stop-opacity="0.878"/><stop offset="0.56" stop-color="#a59199" stop-opacity="0.78"/><stop offset="0.71" stop-color="#91727e" stop-opacity="0.659"/><stop offset="0.87" stop-color="#794c5d" stop-opacity="0.51"/><stop offset="0.9" stop-color="#744456" stop-opacity="0.478"/></linearGradient><linearGradient id="c" x1="0.567" y1="0.102" x2="0.472" y2="0.982" gradientUnits="objectBoundingBox"><stop offset="0.15" stop-color="#7d5f7c"/><stop offset="0.64" stop-color="#674e69"/><stop offset="1" stop-color="#543f59"/></linearGradient><linearGradient id="d" x1="0.685" y1="0.17" x2="0.275" y2="0.901" xlink:href="#c"/></defs><g transform="translate(-1291 -898)" clip-path="url(#a)"><g transform="translate(1291 898)"><circle cx="58" cy="58" r="58" transform="translate(0 0)" opacity="0.78" fill="url(#b)"/><path d="M32.524,90.214a46.523,46.523,0,0,0,27.618,11.4,34.869,34.869,0,0,0,16.892-2.863c8.6-3.911,14.624-11.523,15.1-21.155a20.479,20.479,0,0,0-1.692-9.416c-2.251-4.951-6.8-8.5-11.545-10.946-1.89-.977-3.871-1.76-5.824-2.6-2.327-1-4.677-1.962-7.053-2.849-1.94-.725-3.916-1.35-5.851-2.151-2.8-1.17-6.2-2.953-6.869-6.22a6.3,6.3,0,0,1,.977-4.6c1.494-2.3,4.334-3.25,6.941-3.47.392-.036.788-.054,1.184-.059a28.442,28.442,0,0,1,15.817,4.316c.68.45,1.35.9,1.976,1.409l.707.567,8.966-11.149c-4.321-3.713-8.822-7.022-14.327-8.727A37.885,37.885,0,0,0,63.1,20.147h-.086a31.657,31.657,0,0,0-12.927,2.7,25.3,25.3,0,0,0-8.2,5.712,22,22,0,0,0-5.455,9.079,21.186,21.186,0,0,0-.405,10.627c2.16,9.452,10.8,14.975,19.332,18.027.8.288,1.593.59,2.39.878,4.542,1.661,9.452,3.3,13.354,6.243A7.406,7.406,0,0,1,74.253,78.6a5.8,5.8,0,0,1-2.309,5.131,13.488,13.488,0,0,1-6.081,2.223,20.7,20.7,0,0,1-8.687-.347,34.442,34.442,0,0,1-7.922-3.07A38.106,38.106,0,0,1,42.5,77.971Z" transform="translate(-7.359 -2.926)" fill="url(#c)"/><path d="M61.254,110H56.4V11.7h4.857ZM70.216,11.7H65.359V110h4.857Z" transform="translate(-7.359 -2.926)" fill="url(#d)"/></g></g></svg>