<svg xmlns="http://www.w3.org/2000/svg" width="106.15" height="99.7" viewBox="0 0 106.15 99.7"><path d="M97.46,61.18a33.85,33.85,0,0,1,5.9-8.54,34.49,34.49,0,0,1,12.8-8.24c7.06-2.75,13-3,20.31-3.11a90.688,90.688,0,0,1,11.95.75l2.11.26-12.25,64.47-1.21-.57a43.29,43.29,0,0,0-6.07-2.29,35.07,35.07,0,0,0-12.09-1.53,33.76,33.76,0,0,0-12.25,3.07,38.39,38.39,0,0,0-9.2,5.94,38.81,38.81,0,0,0-9.2-5.94A33.82,33.82,0,0,0,76,102.38a35.07,35.07,0,0,0-12.09,1.53,43.088,43.088,0,0,0-6.06,2.29l-1.21.57L44.38,42.3l2.11-.3a90.806,90.806,0,0,1,11.95-.75c7.34.14,13.25.36,20.32,3.11A34.39,34.39,0,0,1,91.55,52.6a33.67,33.67,0,0,1,5.91,8.58Z" transform="translate(-44.38 -11.69)" fill="#3c2932"/><path d="M137.11,107.23" transform="translate(-44.38 -11.69)" fill="none" stroke="#000" stroke-miterlimit="10" stroke-width="1"/><path d="M47.26,26A64.2,64.2,0,0,1,65.7,28.89c5.94,1.85,14.92,4.65,22.34,12.9A40,40,0,0,1,96,55.19,49.31,49.31,0,0,0,85,45a40.64,40.64,0,0,0-14.87-5.81A57.63,57.63,0,0,0,49,39.17Z" transform="translate(-44.38 -11.69)" fill="#ff2279"/><path d="M52.11,11.69a93.662,93.662,0,0,1,16.58,5.8A54,54,0,0,1,84.36,27.76a32.254,32.254,0,0,1,9.36,15.82c.25,1.14.47,2.25.63,3.39a37.08,37.08,0,0,0-11-13,49.16,49.16,0,0,0-13.64-7,79,79,0,0,0-14.5-3.27c-.23,0-3.17-.35-3.17-.33Z" transform="translate(-44.38 -11.69)" fill="#bdbfb0"/></svg>