<svg xmlns="http://www.w3.org/2000/svg" width="145.173" height="62.271" viewBox="0 0 145.173 62.271"><rect width="8.963" height="1.656" transform="translate(1.824 17.303) rotate(18.08)" fill="#8a5074"/><rect width="8.963" height="1.656" transform="translate(0 27.308)" fill="#8a5074"/><rect width="8.963" height="1.656" transform="matrix(0.687, 0.726, -0.726, 0.687, 8.595, 7.41)" fill="#8a5074"/><rect width="8.963" height="1.656" transform="translate(18.055 1.622) rotate(70.19)" fill="#8a5074"/><rect width="8.963" height="1.656" transform="translate(28.213 0) rotate(90)" fill="#8a5074"/><rect width="8.963" height="1.656" transform="translate(33.389 10.262) rotate(-66.85)" fill="#8a5074"/><rect width="8.963" height="1.656" transform="translate(39.563 14.016) rotate(-47.15)" fill="#8a5074"/><rect width="8.963" height="1.656" transform="translate(43.822 20.208) rotate(-22.31)" fill="#8a5074"/><rect width="8.963" height="1.656" transform="translate(45.389 27.264)" fill="#8a5074"/><path d="M20.938,51.775a7.815,7.815,0,0,0,2.539-.243,4.084,4.084,0,0,0,2.031-.993,4.415,4.415,0,0,0,1.016-1.876c.265-.993.309-2.009.508-3,.817-3.974,4.172-7.086,4.923-11.038A11.458,11.458,0,0,0,28.4,24.71a10.773,10.773,0,0,0-7.462-3.4,11.281,11.281,0,0,0-8.83,5.519,11.038,11.038,0,0,0-1.921,7.881c.751,3.93,4.283,6.932,4.967,10.884a10.839,10.839,0,0,0,.971,4.239A6.336,6.336,0,0,0,21.181,51.8" transform="translate(5.708 -6.629)" fill="#8a5074"/><path d="M19.1,19.82v6.248l-3.841,3.378H13.931L10.09,26.068V19.82" transform="translate(12.185 23.935)" fill="#8a5074"/><path d="M79.3,52.42H67.381a.331.331,0,0,1-.243-.574l5.32-5.475,2.208-2.208a11.48,11.48,0,0,0,2.914-3.753,6.2,6.2,0,0,0-3.488-7.749,5.122,5.122,0,0,0-3.532,0,8.014,8.014,0,0,0-2.936,1.9L65.791,36.3l-2.715,2.6c-4.106,3.93-7.9,8.014-12.252,11.921a17.948,17.948,0,0,1-3.4,2.671c-2.87,1.523-6.248,1.17-9.4,1.17H15.391a.331.331,0,0,1-.331-.331V46.68" transform="translate(11.718 6.7)" fill="none" stroke="#8a5074" stroke-miterlimit="10" stroke-width="1.75"/><path d="M67.872,52.423H55.951a.331.331,0,0,1-.243-.574l5.32-5.475,2.208-2.208a11.48,11.48,0,0,0,2.914-3.753,6.2,6.2,0,0,0-3.488-7.749,5.872,5.872,0,0,0-6,1.347,6.336,6.336,0,0,0-2.208,4.04" transform="translate(59.287 6.698)" fill="none" stroke="#8a5074" stroke-miterlimit="10" stroke-width="1.75"/><rect width="12.274" height="20.685" rx="2.58" transform="translate(95.833 39.251)" fill="none" stroke="#8a5074" stroke-miterlimit="10" stroke-width="1.75"/><path d="M76.032,52.423H64.111a.331.331,0,0,1-.243-.574l5.32-5.475c.729-.751,1.5-1.5,2.208-2.208a11.479,11.479,0,0,0,2.914-3.753,6.2,6.2,0,0,0-3.488-7.749,5.872,5.872,0,0,0-6,1.347,6.336,6.336,0,0,0-2.208,4.04" transform="translate(69.141 6.698)" fill="none" stroke="#8a5074" stroke-miterlimit="10" stroke-width="1.75"/></svg>